<?xml version="1.0" encoding="UTF-8" standalone="no"?>
<svg
   xmlns:dc="http://purl.org/dc/elements/1.1/"
   xmlns:cc="http://creativecommons.org/ns#"
   xmlns:rdf="http://www.w3.org/1999/02/22-rdf-syntax-ns#"
   xmlns:svg="http://www.w3.org/2000/svg"
   xmlns="http://www.w3.org/2000/svg"
   xmlns:sodipodi="http://sodipodi.sourceforge.net/DTD/sodipodi-0.dtd"
   xmlns:inkscape="http://www.inkscape.org/namespaces/inkscape"
   width="52.916668mm"
   height="26.458332mm"
   viewBox="0 0 52.916668 26.458332"
   version="1.1"
   id="svg8"
   inkscape:version="1.0.1 (1.0.1+r73)"
   sodipodi:docname="footer.svg"
   inkscape:export-filename="/home/masterg/Documents/Personal Project/ITI_website/assets/back.png"
   inkscape:export-xdpi="600"
   inkscape:export-ydpi="600">
  <defs
     id="defs2" />
  <sodipodi:namedview
     id="base"
     pagecolor="#ffffff"
     bordercolor="#666666"
     borderopacity="1.0"
     inkscape:pageopacity="0.0"
     inkscape:pageshadow="2"
     inkscape:zoom="3.5825002"
     inkscape:cx="39.556067"
     inkscape:cy="69.602636"
     inkscape:document-units="mm"
     inkscape:current-layer="layer1"
     inkscape:document-rotation="0"
     showgrid="false"
     inkscape:window-width="1920"
     inkscape:window-height="1020"
     inkscape:window-x="0"
     inkscape:window-y="30"
     inkscape:window-maximized="1">
    <inkscape:grid
       type="xygrid"
       id="grid853"
       originx="0.093544182"
       originy="0.093544219" />
  </sodipodi:namedview>
  <metadata
     id="metadata5">
    <rdf:RDF>
      <cc:Work
         rdf:about="">
        <dc:format>image/svg+xml</dc:format>
        <dc:type
           rdf:resource="http://purl.org/dc/dcmitype/StillImage" />
        <dc:title />
      </cc:Work>
    </rdf:RDF>
  </metadata>
  <g
     inkscape:label="Layer 1"
     inkscape:groupmode="layer"
     id="layer1"
     transform="translate(1.5861148,-0.8415702)">
    <rect
       style="fill:#fafafa;fill-opacity:1;fill-rule:evenodd;stroke:none;stroke-width:1;stroke-linecap:round"
       id="rect833"
       width="52.916668"
       height="26.458332"
       x="-1.5861148"
       y="0.8415702" />
    <path
       fill="currentColor"
       d="M 4.4941668,4.165951 4.3902162,4.0620004 c -0.028709,-0.028709 -0.075241,-0.028709 -0.1039506,0 L 4.2343133,4.1139528 4.1015615,3.981201 C 4.1274225,3.883314 4.1032115,3.7749535 4.0264585,3.6981963 L 3.8186028,3.4903411 c -0.287001,-0.2870011 -0.7523671,-0.2870011 -1.039414,0 l 0.4157564,0.2078552 v 0.086128 c 0,0.077951 0.03096,0.1527334 0.086128,0.2078552 l 0.2257239,0.225724 c 0.076757,0.076757 0.1851175,0.1009648 0.2830047,0.075103 l 0.1327517,0.1327517 -0.051952,0.051952 c -0.028709,0.028709 -0.028709,0.075241 0,0.1039506 l 0.1039501,0.1039513 c 0.028709,0.028709 0.075241,0.028709 0.1039508,0 L 4.4942587,4.2698557 c 0.028617,-0.028663 0.028617,-0.075195 -8.69e-5,-0.1039047 z M 3.1771225,4.09613 C 3.1601265,4.079134 3.1457025,4.060347 3.1318765,4.041238 L 1.9600785,5.1352685 C 1.842623,5.2449609 1.8394536,5.4301243 1.9530505,5.5437671 2.0666474,5.6574099 2.2518568,5.6542405 2.3615492,5.5367371 L 3.4553958,4.3650786 c -0.01819,-0.013367 -0.036289,-0.026963 -0.052549,-0.043225 z"
       id="path2"
       style="fill:#d4d4d4;stroke-width:0.264583" />
    <path
       fill="currentColor"
       d="M 4.5616068,12.249755 C 4.3957814,12.232507 4.2334271,12.193298 4.0807575,12.127377 l -0.1454718,0.542897 0.1129529,0.281332 c 0.020541,0.05116 0.084413,0.06826 0.1277876,0.03424 l 0.238505,-0.1872 z m 0.5008004,-0.190272 c 0.045782,-0.01027 0.072665,-0.05881 0.059706,-0.103928 l -0.045631,-0.159478 c -0.01217,-0.0425 -0.05539,-0.066 -0.098586,-0.05679 C 4.5955247,11.821217 4.1949937,11.704617 3.9163654,11.425985 3.8289234,11.338545 3.7593083,11.237871 3.70486,11.130221 l 0.6725103,-0.180223 c 0.00246,0.0026 0.0041,0.0057 0.00666,0.0082 0.00255,0.0025 0.0056,0.0043 0.00821,0.0067 l -0.1367151,0.510103 c 0.1468574,0.08138 0.311734,0.123546 0.4806284,0.123107 l 0.1385722,-0.517055 c 0.077032,-0.02258 0.150147,-0.06201 0.2109156,-0.122781 0.1937423,-0.193743 0.1937424,-0.507854 6e-7,-0.701596 -0.193743,-0.193743 -0.5078541,-0.193743 -0.7015974,0 -0.060772,0.06077 -0.1001981,0.133885 -0.1228162,0.210879 l -0.6819005,0.182744 c -0.00343,-0.08828 0.0023,-0.177408 0.019444,-0.265584 0.00844,-0.04344 -0.015852,-0.08621 -0.058649,-0.0976 L 3.379995,10.244435 c -0.045274,-0.0121 -0.093289,0.01561 -0.1027206,0.0615 -0.029492,0.143278 -0.034788,0.288312 -0.022071,0.431189 l -0.7116088,0.190672 -0.1872003,0.238508 c -0.034035,0.04337 -0.016919,0.107247 0.034238,0.127788 l 0.281332,0.112949 0.7068217,-0.189394 c 0.072904,0.162351 0.1743767,0.312941 0.3036601,0.442225 0.3619427,0.361943 0.8839012,0.511106 1.3799512,0.399617 z M 4.8517827,10.490539 c 0.064561,0.06457 0.064567,0.169295 -1.3e-6,0.233865 -0.064569,0.06457 -0.1692934,0.06457 -0.2338638,0 -0.064561,-0.06457 -0.064577,-0.169293 1.2e-6,-0.233866 0.064569,-0.06457 0.1692941,-0.06457 0.2338658,0 z"
       id="path2-3"
       style="fill:#d4d4d4;stroke-width:0.264583" />
    <path
       fill="currentColor"
       d="m 3.9203024,22.462127 c -0.01158,-0.04666 -0.06997,-0.06248 -0.103973,-0.02847 l -0.384265,0.384265 -0.350779,-0.05845 -0.05845,-0.350778 0.384265,-0.384265 c 0.03421,-0.03421 0.01772,-0.0925 -0.02925,-0.10418 -0.244843,-0.06067 -0.514438,0.0047 -0.705795,0.196009 -0.204845,0.204844 -0.261224,0.501776 -0.175958,0.760675 l -1.1027218,1.10272 c -0.129139,0.129139 -0.129139,0.338532 0,0.467671 0.129139,0.129139 0.338532,0.129139 0.4676714,0 l 1.1017904,-1.101791 c 0.259002,0.08635 0.555365,0.02935 0.761554,-0.176836 0.191564,-0.191564 0.256831,-0.461573 0.195905,-0.70657 z M 1.6272686,24.33746 c -0.06847,0 -0.124023,-0.05555 -0.124023,-0.124023 0,-0.06852 0.05555,-0.124023 0.124023,-0.124023 0.06847,0 0.124023,0.0555 0.124023,0.124023 0,0.06847 -0.05555,0.124023 -0.124023,0.124023 z"
       id="path2-6"
       style="fill:#d4d4d4;stroke-width:0.264583" />
    <path
       fill="currentColor"
       d="m 9.6956325,16.263323 c 0.03654,0 0.06616,-0.02961 0.06616,-0.06616 v -0.06613 c 0,-0.03654 -0.02961,-0.06616 -0.06616,-0.06616 l -0.208808,3e-5 -3e-5,-0.208808 c 0,-0.03654 -0.02961,-0.06616 -0.06616,-0.06616 h -0.06613 c -0.03654,0 -0.06616,0.02961 -0.06615,0.06615 l -1e-6,0.341087 c 0,0.03654 0.02961,0.06616 0.06615,0.06615 z m 0.247626,-0.313698 h 0.06613 c 0.03654,0 0.06616,-0.02961 0.06615,-0.06615 v -0.341086 c 0,-0.03654 -0.02961,-0.06616 -0.06616,-0.06616 H 9.6682925 c -0.03654,0 -0.06616,0.02961 -0.06615,0.06615 v 0.06613 c 0,0.03654 0.02961,0.06616 0.06616,0.06616 h 0.208779 l 3e-5,0.208808 c 0,0.03654 0.02961,0.06616 0.06615,0.06615 z m 1.2821725,-0.313695 -0.708773,0.708774 c 0.05572,0.0601 0.05054,0.136543 -0.0022,0.189251 l -0.177734,0.177734 c -0.05464,0.05464 -0.147594,0.04546 -0.189339,0.0023 L 9.4480535,17.41332 c -0.02573,0.02572 -0.02573,0.06782 -8e-6,0.09354 l 0.04678,0.04678 c 0.102898,0.102898 0.271278,0.102899 0.374177,0 l 1.4967105,-1.496709 c 0.102899,-0.102899 0.102898,-0.271279 -10e-7,-0.374178 l -0.04678,-0.04678 c -0.02572,-0.02572 -0.06782,-0.02572 -0.09354,7e-6 z m -1.216076,-0.935444 c -0.07717,-0.07717 -0.2034615,-0.07717 -0.2806335,1e-6 l -1.2160772,1.216076 c -0.07717,0.07717 -0.07717,0.203461 0,0.280633 l 0.9822162,0.982216 1.4967105,-1.49671 z m 0.608038,0.982217 -1.1225325,1.122532 -0.7483553,-0.748355 1.1225323,-1.122532 z"
       id="path2-7"
       style="fill:#d4d4d4;stroke-width:0.264584" />
    <path
       fill="currentColor"
       d="m 12.574758,6.7560855 -0.23824,0.2382395 c -0.02429,0.02429 -0.06356,0.02429 -0.08785,0 L 11.675033,6.4206905 c -0.02429,-0.02429 -0.02429,-0.06357 0,-0.08785 l 0.23824,-0.23824 c 0.09664,-0.09664 0.253743,-0.09664 0.350899,0 l 0.31059,0.31059 c 0.09716,0.09664 0.09716,0.253743 0,0.350899 z M 11.470381,6.5374845 10.113296,7.89457 10.003737,8.522468 c -0.01499,0.08475 0.05891,0.158137 0.143667,0.143667 l 0.627898,-0.110076 1.357085,-1.357086 c 0.02429,-0.02429 0.02429,-0.06357 0,-0.08785 L 11.558752,6.5374885 c -0.02481,-0.02429 -0.06408,-0.02429 -0.08837,0 z M 10.643004,7.778292 c -0.02842,-0.02842 -0.02842,-0.0739 0,-0.102324 l 0.795853,-0.7958525 c 0.02842,-0.02842 0.0739,-0.02842 0.102324,0 0.02842,0.02842 0.02842,0.073899 0,0.1023235 l -0.795853,0.795853 c -0.02842,0.02842 -0.0739,0.02842 -0.102324,0 z m -0.186561,0.434619 h 0.248059 v 0.187594 l -0.333329,0.0584 -0.160721,-0.160722 0.0584,-0.333328 h 0.187594 z"
       id="path2-5"
       style="fill:#d4d4d4;stroke-width:0.264582" />
    <path
       fill="currentColor"
       d="M 15.090833,23.772609 14.52594,22.706667 c -0.03078,-0.05809 -0.07872,-0.106029 -0.13678,-0.13678 l -1.065971,-0.564922 c -0.08995,-0.04768 -0.180952,0.04332 -0.133272,0.133272 l 0.09849,0.185829 c -0.06975,0.0074 -0.135961,0.03523 -0.189371,0.08483 -0.04429,-0.01201 -0.09323,-0.0027 -0.12798,0.03204 -0.03152,0.03152 -0.04142,0.07463 -0.03447,0.115499 L 12.52613,22.81763 c -0.03571,0.0227 -0.04119,0.07264 -0.01129,0.102545 l 0.164025,0.164024 c 0.02993,0.02993 0.07986,0.02444 0.10258,-0.01125 l 0.261194,-0.410457 c 0.04087,0.007 0.08398,-0.0029 0.115499,-0.03446 0.03382,-0.03382 0.0432,-0.08103 0.03277,-0.124327 0.0461,-0.04171 0.1074,-0.05806 0.167828,-0.04686 l 0.396046,0.747363 c 0.01836,0.03461 0.05902,0.09556 0.13678,0.13678 l 1.065971,0.564922 c 0.09001,0.04768 0.18098,-0.04329 0.1333,-0.133301 z M 13.829617,23.45789 C 13.720605,23.4001 13.663689,23.314886 13.637879,23.266152 l -0.293701,-0.554164 -0.373124,0.290224 c -0.103338,0.103338 0.06419,0.438374 0.374178,0.748357 0.309984,0.309984 0.64502,0.477517 0.748358,0.374179 l 0.290252,-0.373154 z"
       id="path2-35"
       style="fill:#d4d4d4;stroke-width:0.264584" />
    <path
       fill="currentColor"
       d="m 21.408233,6.2166927 c 0,-0.4147037 -0.254661,-0.7695652 -0.615932,-0.9178765 l -0.210891,0.4217827 -1e-6,-0.5787758 a 0.08268229,0.08268229 0 0 0 -0.08268,-0.08268 l -0.496093,-3e-7 a 0.08268229,0.08268229 0 0 0 -0.08268,0.082682 l -10e-7,0.5787765 -0.21089,-0.421784 c -0.361271,0.148312 -0.615932,0.5031733 -0.615929,0.9178795 v 0.330729 h 2.315104 z m 0.08268,0.496093 h -2.480468 a 0.08268229,0.08268229 0 0 0 -0.08268,0.08268 l -2e-6,0.165363 a 0.08268229,0.08268229 0 0 0 0.08268,0.08268 l 2.48047,-1e-6 a 0.08268229,0.08268229 0 0 0 0.08268,-0.08268 l 2e-6,-0.165363 a 0.08268229,0.08268229 0 0 0 -0.08268,-0.08268 z"
       id="path887"
       style="fill:#d4d4d4;stroke-width:0.264583" />
    <path
       fill="currentColor"
       d="m 16.779315,14.356178 c -0.02284,0 -0.04134,-0.0185 -0.04134,-0.04134 v -0.08268 c 0,-0.02284 0.0185,-0.04134 0.04134,-0.04134 h 0.454753 v -0.330731 h -0.454753 c -0.02284,0 -0.04134,-0.0185 -0.04134,-0.04134 v -0.08268 c 0,-0.02284 0.0185,-0.04134 0.04134,-0.04134 h 0.454753 v -0.330731 h -0.454753 c -0.02284,0 -0.04134,-0.0185 -0.04134,-0.04134 v -0.08268 c 0,-0.02284 0.0185,-0.04134 0.04134,-0.04134 h 0.454753 v -0.330732 h -0.454753 c -0.02284,0 -0.04134,-0.0185 -0.04134,-0.04134 v -0.08268 c 0,-0.02284 0.0185,-0.04134 0.04134,-0.04134 h 0.454753 v -0.330729 c 0,-0.09131 -0.07405,-0.165364 -0.165365,-0.165364 h -0.992187 c -0.09131,0 -0.165365,0.07405 -0.165365,0.165364 v 2.315104 c 0,0.09131 0.07405,0.165365 0.165365,0.165365 h 0.992187 c 0.09131,0 0.165365,-0.07405 0.165365,-0.165365 V 14.35619 Z"
       id="path2-9"
       style="fill:#d4d4d4;stroke-width:0.264583" />
    <path
       fill="currentColor"
       d="m 21.104357,19.993778 v 2.14974 c 0,0.136994 -0.111053,0.248046 -0.248047,0.248046 h -1.157552 c -0.136994,0 -0.248047,-0.111052 -0.248047,-0.248046 v -2.14974 c 0,-0.136994 0.111053,-0.248047 0.248047,-0.248047 h 1.157552 c 0.136994,0 0.248047,0.111053 0.248047,0.248047 z m 0.496094,0.299723 v 0.06201 a 0.03100586,0.03100586 0 0 1 -0.03101,0.03101 h -0.09302 v 0.03101 a 0.03100586,0.03100586 0 0 1 -0.03101,0.03101 H 21.22837 v -0.248047 h 0.217041 a 0.03100586,0.03100586 0 0 1 0.03101,0.03101 v 0.03101 h 0.09302 a 0.03100586,0.03100586 0 0 1 0.03101,0.03101 z m 0,0.496094 v 0.06201 a 0.03100586,0.03100586 0 0 1 -0.03101,0.03101 h -0.09302 v 0.03101 a 0.03100586,0.03100586 0 0 1 -0.03101,0.03101 H 21.22837 v -0.248047 h 0.217041 a 0.03100586,0.03100586 0 0 1 0.03101,0.03101 v 0.03101 h 0.09302 a 0.03100586,0.03100586 0 0 1 0.03101,0.03101 z m 0,0.496094 v 0.06201 a 0.03100586,0.03100586 0 0 1 -0.03101,0.03101 h -0.09302 v 0.03101 a 0.03100586,0.03100586 0 0 1 -0.03101,0.03101 H 21.22837 v -0.248047 h 0.217041 a 0.03100586,0.03100586 0 0 1 0.03101,0.03101 v 0.03101 h 0.09302 a 0.03100586,0.03100586 0 0 1 0.03101,0.03101 z m 0,0.496093 v 0.06201 a 0.03100586,0.03100586 0 0 1 -0.03101,0.03101 h -0.09302 v 0.03101 a 0.03100586,0.03100586 0 0 1 -0.03101,0.03101 H 21.22837 v -0.248047 h 0.217041 a 0.03100586,0.03100586 0 0 1 0.03101,0.03101 v 0.03101 h 0.09302 a 0.03100586,0.03100586 0 0 1 0.03101,0.03101 z m -2.490804,-0.09302 h 0.217041 v 0.248047 h -0.217041 a 0.03100586,0.03100586 0 0 1 -0.03101,-0.03101 v -0.03101 h -0.09302 a 0.03100586,0.03100586 0 0 1 -0.03101,-0.03101 v -0.06201 a 0.03100586,0.03100586 0 0 1 0.03101,-0.03101 h 0.09302 v -0.03101 a 0.03100586,0.03100586 0 0 1 0.03101,-0.03101 z m 0,-0.496094 h 0.217041 v 0.248047 h -0.217041 a 0.03100586,0.03100586 0 0 1 -0.03101,-0.03101 v -0.03101 h -0.09302 a 0.03100586,0.03100586 0 0 1 -0.03101,-0.03101 v -0.06201 a 0.03100586,0.03100586 0 0 1 0.03101,-0.03101 h 0.09302 v -0.03101 a 0.03100586,0.03100586 0 0 1 0.03101,-0.03101 z m 0,-0.496094 h 0.217041 v 0.248047 h -0.217041 a 0.03100586,0.03100586 0 0 1 -0.03101,-0.03101 v -0.03101 h -0.09302 a 0.03100586,0.03100586 0 0 1 -0.03101,-0.03101 v -0.06201 a 0.03100586,0.03100586 0 0 1 0.03101,-0.03101 h 0.09302 v -0.03101 a 0.03100586,0.03100586 0 0 1 0.03101,-0.03101 z m 0,-0.496093 h 0.217041 v 0.248047 h -0.217041 a 0.03100586,0.03100586 0 0 1 -0.03101,-0.03101 v -0.03101 h -0.09302 a 0.03100586,0.03100586 0 0 1 -0.03101,-0.03101 v -0.06201 a 0.03100586,0.03100586 0 0 1 0.03101,-0.03101 h 0.09302 v -0.03101 a 0.03100586,0.03100586 0 0 1 0.03101,-0.03101 z"
       id="path2-1"
       style="fill:#d4d4d4;stroke-width:0.264582" />
    <path
       fill="currentColor"
       d="m 30.826872,4.774355 -0.10395,0.103951 c -0.02871,0.02871 -0.02871,0.07524 0,0.10395 l 0.05195,0.05195 -0.132752,0.132752 c -0.09789,-0.02586 -0.206248,-0.0017 -0.283005,0.0751 L 30.15126,5.449919 c -0.287001,0.287001 -0.287001,0.752367 0,1.039414 l 0.207856,-0.415756 h 0.08613 c 0.07795,0 0.152733,-0.03096 0.207855,-0.08613 l 0.225724,-0.225724 c 0.07676,-0.07676 0.100965,-0.185118 0.0751,-0.283005 l 0.132752,-0.132751 0.05195,0.05195 c 0.02871,0.02871 0.07524,0.02871 0.10395,0 l 0.103951,-0.103951 c 0.02871,-0.02871 0.02871,-0.07524 0,-0.10395 L 30.930772,4.774259 c -0.02866,-0.02862 -0.0752,-0.02862 -0.103905,8.7e-5 z M 30.757052,6.0914 c -0.017,0.017 -0.03578,0.03142 -0.05489,0.04525 l 1.094031,1.171794 c 0.109692,0.117455 0.294856,0.120624 0.408498,0.007 0.113643,-0.113597 0.110474,-0.298807 -0.007,-0.408499 L 31.026033,5.813098 c -0.01337,0.01819 -0.02696,0.03629 -0.04322,0.05255 z"
       id="path903"
       style="fill:#d4d4d4;stroke-width:0.264583" />
    <path
       fill="currentColor"
       d="m 41.298626,6.2032229 c -0.131147,0.1029387 -0.275072,0.1876839 -0.430615,0.2465036 l 0.273065,0.4912581 0.276827,0.1235829 c 0.05034,0.022474 0.108126,-0.00966 0.115632,-0.064275 l 0.04117,-0.3003887 z m 0.227499,-0.485024 c 0.02575,-0.039219 0.01131,-0.092799 -0.02938,-0.116203 l -0.143704,-0.082852 c -0.0383,-0.022073 -0.0857,-0.0089 -0.110337,0.027765 -0.217758,0.32481 -0.586643,0.5196027 -0.980634,0.5131886 -0.123643,-0.00201 -0.243683,-0.025929 -0.357677,-0.065409 l 0.357865,-0.5972291 c 0.0036,1.293e-4 0.0069,0.00124 0.01052,0.00123 0.0035,5.75e-5 0.007,-8.052e-4 0.01055,-8.891e-4 l 0.256548,0.4616052 c 0.162121,-0.043668 0.309914,-0.128043 0.430963,-0.2458261 L 40.71079,5.1456899 c 0.03964,-0.069799 0.06475,-0.1489837 0.06615,-0.2349134 0.0045,-0.2739577 -0.214008,-0.4996525 -0.487964,-0.504111 -0.273958,-0.00446 -0.499653,0.2140079 -0.504111,0.4879656 -0.0014,0.08593 0.02112,0.1658881 0.05842,0.2369407 l -0.362858,0.6055713 c -0.06384,-0.061066 -0.121736,-0.1290707 -0.170748,-0.2043479 -0.02418,-0.037055 -0.07135,-0.05092 -0.110022,-0.029336 l -0.14474,0.080704 c -0.04094,0.022792 -0.05617,0.0761 -0.03103,0.1156321 0.07846,0.1234586 0.175526,0.2313545 0.284037,0.3251675 l -0.37869,0.6319299 0.03138,0.3015722 c 0.0057,0.05483 0.06243,0.088827 0.11348,0.068004 l 0.280699,-0.1145123 0.37614,-0.6276829 c 0.165297,0.06595 0.342946,0.1035737 0.525757,0.1065496 0.511796,0.00833 0.990577,-0.2475198 1.269457,-0.672633 z M 40.283576,4.7373727 c 0.0913,0.00149 0.16414,0.076733 0.162653,0.1680379 -0.0015,0.091304 -0.07673,0.1641393 -0.168035,0.1626534 -0.0913,-0.00149 -0.164146,-0.076725 -0.162655,-0.168038 0.0015,-0.091304 0.07673,-0.1641399 0.168038,-0.1626554 z"
       id="path905"
       style="fill:#d4d4d4;stroke-width:0.264583" />
    <path
       fill="currentColor"
       d="m 47.355529,6.8944142 c 0.04666,-0.01158 0.06248,-0.06997 0.02847,-0.103973 l -0.384265,-0.384265 0.05845,-0.350779 0.350778,-0.05845 0.384265,0.384265 c 0.03421,0.03421 0.0925,0.01772 0.10418,-0.02925 0.06067,-0.244843 -0.0047,-0.514438 -0.196009,-0.705795 -0.204844,-0.204845 -0.501776,-0.261224 -0.760675,-0.175958 l -1.10272,-1.102721 c -0.129139,-0.129139 -0.338532,-0.129139 -0.467671,0 -0.129139,0.129139 -0.129139,0.338532 0,0.467671 l 1.101791,1.10179 c -0.08635,0.259002 -0.02935,0.555365 0.176836,0.761554 0.191564,0.191564 0.461573,0.256831 0.70657,0.195905 z m -1.875333,-2.293033 c 0,-0.06847 0.05555,-0.124023 0.124023,-0.124023 0.06852,0 0.124023,0.05555 0.124023,0.124023 0,0.06847 -0.0555,0.124023 -0.124023,0.124023 -0.06847,0 -0.124023,-0.05555 -0.124023,-0.124023 z"
       id="path907"
       style="fill:#d4d4d4;stroke-width:0.264583" />
    <path
       fill="currentColor"
       d="m 32.894372,11.935217 c 0,0.03654 0.02961,0.06616 0.06616,0.06616 h 0.06613 c 0.03654,0 0.06616,-0.02961 0.06616,-0.06616 l -3e-5,-0.208808 0.208808,-3e-5 c 0.03654,0 0.06616,-0.02961 0.06616,-0.06616 v -0.06613 c 0,-0.03654 -0.02961,-0.06616 -0.06615,-0.06615 l -0.341087,-10e-7 c -0.03654,0 -0.06616,0.02961 -0.06615,0.06615 z m 0.313698,0.247626 v 0.06613 c 0,0.03654 0.02961,0.06616 0.06615,0.06615 h 0.341086 c 0.03654,0 0.06616,-0.02961 0.06616,-0.06616 v -0.341086 c 0,-0.03654 -0.02961,-0.06616 -0.06615,-0.06615 h -0.06613 c -0.03654,0 -0.06616,0.02961 -0.06616,0.06616 v 0.208779 l -0.208808,3e-5 c -0.03654,0 -0.06616,0.02961 -0.06615,0.06615 z m 0.313695,1.282173 -0.708774,-0.708773 c -0.0601,0.05572 -0.136543,0.05054 -0.189251,-0.0022 l -0.177734,-0.177734 c -0.05464,-0.05464 -0.04546,-0.147594 -0.0023,-0.189339 l -0.699331,-0.699332 c -0.02572,-0.02573 -0.06782,-0.02573 -0.09354,-8e-6 l -0.04678,0.04678 c -0.102898,0.102898 -0.102899,0.271278 0,0.374177 l 1.496709,1.496711 c 0.102899,0.102899 0.271279,0.102898 0.374178,-10e-7 l 0.04678,-0.04678 c 0.02572,-0.02572 0.02572,-0.06782 -7e-6,-0.09354 z m 0.935444,-1.216076 c 0.07717,-0.07717 0.07717,-0.203462 -10e-7,-0.280634 l -1.216076,-1.216077 c -0.07717,-0.07717 -0.203461,-0.07717 -0.280633,0 l -0.982216,0.982216 1.49671,1.496711 z m -0.982217,0.608038 -1.122532,-1.122533 0.748355,-0.748355 1.122532,1.122532 z"
       id="path909"
       style="fill:#d4d4d4;stroke-width:0.264584"
       inkscape:transform-center-x="-2.6739217"
       inkscape:transform-center-y="0.37776444" />
    <path
       fill="currentColor"
       d="m 45.060367,15.035906 -0.238239,-0.23824 c -0.02429,-0.02429 -0.02429,-0.06356 0,-0.08785 l 0.573634,-0.573635 c 0.02429,-0.02429 0.06357,-0.02429 0.08785,0 l 0.23824,0.23824 c 0.09664,0.09664 0.09664,0.253743 0,0.350899 l -0.31059,0.31059 c -0.09664,0.09716 -0.253743,0.09716 -0.350899,0 z m 0.218601,-1.104377 -1.357085,-1.357085 -0.627898,-0.109559 c -0.08475,-0.01499 -0.158137,0.05891 -0.143667,0.143667 l 0.110076,0.627898 1.357086,1.357085 c 0.02429,0.02429 0.06357,0.02429 0.08785,0 L 45.278964,14.0199 c 0.02429,-0.02481 0.02429,-0.06408 0,-0.08837 z m -1.240807,-0.827377 c 0.02842,-0.02842 0.0739,-0.02842 0.102324,0 l 0.795852,0.795853 c 0.02842,0.02842 0.02842,0.0739 0,0.102324 -0.02842,0.02842 -0.0739,0.02842 -0.102323,0 l -0.795853,-0.795853 c -0.02842,-0.02842 -0.02842,-0.0739 0,-0.102324 z m -0.434619,-0.186561 v 0.248059 h -0.187594 l -0.0584,-0.333329 0.160722,-0.160721 0.333328,0.0584 v 0.187594 z"
       id="path911"
       style="fill:#d4d4d4;stroke-width:0.264582" />
    <path
       fill="currentColor"
       d="M 27.038654,14.038554 25.88548,13.684259 c -0.06284,-0.01931 -0.130638,-0.01931 -0.193437,0 l -1.153215,0.354295 c -0.09732,0.02989 -0.09732,0.158584 0,0.188475 l 0.201044,0.06176 c -0.04409,0.05455 -0.07123,0.12105 -0.07392,0.19389 -0.03981,0.02282 -0.06783,0.06401 -0.06784,0.113151 0,0.04458 0.02348,0.08206 0.0573,0.106044 l -0.105543,0.474929 c -0.0092,0.0413 0.02224,0.08049 0.06453,0.08049 h 0.231966 c 0.04233,0 0.07375,-0.03919 0.06458,-0.08049 l -0.105554,-0.474928 c 0.03385,-0.02395 0.05733,-0.06143 0.0573,-0.106037 0,-0.04783 -0.02675,-0.08784 -0.06474,-0.111085 0.0031,-0.06209 0.03489,-0.116998 0.08554,-0.151807 l 0.808512,0.248419 c 0.03746,0.01149 0.109305,0.02584 0.193436,0 l 1.153216,-0.354296 c 0.09736,-0.02993 0.09736,-0.158582 -10e-7,-0.188515 z M 25.9243,14.707828 c -0.117947,0.03622 -0.218448,0.01621 -0.271159,0 l -0.599531,-0.184175 -0.05862,0.469058 c 0,0.146142 0.355366,0.264588 0.793752,0.264585 0.438384,0 0.793754,-0.118443 0.793754,-0.264585 l -0.05862,-0.469099 z"
       id="path913"
       style="fill:#d4d4d4;stroke-width:0.264584" />
    <path
       fill="currentColor"
       d="m 46.922681,22.877194 c 0,-0.414704 -0.254661,-0.769565 -0.615932,-0.917876 l -0.210891,0.421782 -10e-7,-0.578776 a 0.08268229,0.08268229 0 0 0 -0.08268,-0.08268 h -0.496093 a 0.08268229,0.08268229 0 0 0 -0.08268,0.08268 l -10e-7,0.578777 -0.21089,-0.421784 c -0.361271,0.148312 -0.615932,0.503173 -0.615929,0.917879 v 0.330729 h 2.315104 z m 0.08268,0.496093 h -2.480468 a 0.08268229,0.08268229 0 0 0 -0.08268,0.08268 l -2e-6,0.165363 a 0.08268229,0.08268229 0 0 0 0.08268,0.08268 l 2.48047,-1e-6 a 0.08268229,0.08268229 0 0 0 0.08268,-0.08268 l 2e-6,-0.165363 a 0.08268229,0.08268229 0 0 0 -0.08268,-0.08268 z"
       id="path915"
       style="fill:#d4d4d4;stroke-width:0.264583" />
    <path
       fill="currentColor"
       d="m 37.460275,19.240463 c 0,-0.02284 0.0185,-0.04134 0.04134,-0.04134 h 0.08268 c 0.02284,0 0.04134,0.0185 0.04134,0.04134 v 0.454753 h 0.330731 v -0.454753 c 0,-0.02284 0.0185,-0.04134 0.04134,-0.04134 h 0.08268 c 0.02284,0 0.04134,0.0185 0.04134,0.04134 v 0.454753 h 0.330731 v -0.454753 c 0,-0.02284 0.0185,-0.04134 0.04134,-0.04134 h 0.08268 c 0.02284,0 0.04134,0.0185 0.04134,0.04134 v 0.454753 h 0.330732 v -0.454753 c 0,-0.02284 0.0185,-0.04134 0.04134,-0.04134 h 0.08268 c 0.02284,0 0.04134,0.0185 0.04134,0.04134 v 0.454753 h 0.330729 c 0.09131,0 0.165364,-0.07405 0.165364,-0.165365 v -0.992187 c 0,-0.09131 -0.07405,-0.165365 -0.165364,-0.165365 h -2.315104 c -0.09131,0 -0.165365,0.07405 -0.165365,0.165365 v 0.992187 c 0,0.09131 0.07405,0.165365 0.165365,0.165365 h 0.330729 z"
       id="path917"
       style="fill:#d4d4d4;stroke-width:0.264583" />
    <path
       fill="currentColor"
       d="m 31.822675,23.565505 h -2.14974 c -0.136994,0 -0.248046,-0.111053 -0.248046,-0.248047 v -1.157552 c 0,-0.136994 0.111052,-0.248047 0.248046,-0.248047 h 2.14974 c 0.136994,0 0.248047,0.111053 0.248047,0.248047 v 1.157552 c 0,0.136994 -0.111053,0.248047 -0.248047,0.248047 z m -0.299723,0.496094 h -0.06201 a 0.03100586,0.03100586 0 0 1 -0.03101,-0.03101 v -0.09302 h -0.03101 a 0.03100586,0.03100586 0 0 1 -0.03101,-0.03101 v -0.217041 h 0.248047 v 0.217041 a 0.03100586,0.03100586 0 0 1 -0.03101,0.03101 h -0.03101 v 0.09302 a 0.03100586,0.03100586 0 0 1 -0.03101,0.03101 z m -0.496094,0 h -0.06201 a 0.03100586,0.03100586 0 0 1 -0.03101,-0.03101 v -0.09302 h -0.03101 a 0.03100586,0.03100586 0 0 1 -0.03101,-0.03101 v -0.217041 h 0.248047 v 0.217041 a 0.03100586,0.03100586 0 0 1 -0.03101,0.03101 h -0.03101 v 0.09302 a 0.03100586,0.03100586 0 0 1 -0.03101,0.03101 z m -0.496094,0 h -0.06201 a 0.03100586,0.03100586 0 0 1 -0.03101,-0.03101 v -0.09302 h -0.03101 a 0.03100586,0.03100586 0 0 1 -0.03101,-0.03101 v -0.217041 h 0.248047 v 0.217041 a 0.03100586,0.03100586 0 0 1 -0.03101,0.03101 h -0.03101 v 0.09302 a 0.03100586,0.03100586 0 0 1 -0.03101,0.03101 z m -0.496093,0 h -0.06201 a 0.03100586,0.03100586 0 0 1 -0.03101,-0.03101 v -0.09302 h -0.03101 a 0.03100586,0.03100586 0 0 1 -0.03101,-0.03101 v -0.217041 h 0.248047 v 0.217041 a 0.03100586,0.03100586 0 0 1 -0.03101,0.03101 h -0.03101 v 0.09302 a 0.03100586,0.03100586 0 0 1 -0.03101,0.03101 z m 0.09302,-2.490804 v 0.217041 h -0.248047 v -0.217041 a 0.03100586,0.03100586 0 0 1 0.03101,-0.03101 h 0.03101 v -0.09302 a 0.03100586,0.03100586 0 0 1 0.03101,-0.03101 h 0.06201 a 0.03100586,0.03100586 0 0 1 0.03101,0.03101 v 0.09302 h 0.03101 a 0.03100586,0.03100586 0 0 1 0.03101,0.03101 z m 0.496094,0 v 0.217041 h -0.248047 v -0.217041 a 0.03100586,0.03100586 0 0 1 0.03101,-0.03101 h 0.03101 v -0.09302 a 0.03100586,0.03100586 0 0 1 0.03101,-0.03101 h 0.06201 a 0.03100586,0.03100586 0 0 1 0.03101,0.03101 v 0.09302 h 0.03101 a 0.03100586,0.03100586 0 0 1 0.03101,0.03101 z m 0.496094,0 v 0.217041 h -0.248047 v -0.217041 a 0.03100586,0.03100586 0 0 1 0.03101,-0.03101 h 0.03101 v -0.09302 a 0.03100586,0.03100586 0 0 1 0.03101,-0.03101 h 0.06201 a 0.03100586,0.03100586 0 0 1 0.03101,0.03101 v 0.09302 h 0.03101 a 0.03100586,0.03100586 0 0 1 0.03101,0.03101 z m 0.496093,0 v 0.217041 h -0.248047 v -0.217041 a 0.03100586,0.03100586 0 0 1 0.03101,-0.03101 h 0.03101 v -0.09302 a 0.03100586,0.03100586 0 0 1 0.03101,-0.03101 h 0.06201 a 0.03100586,0.03100586 0 0 1 0.03101,0.03101 v 0.09302 h 0.03101 a 0.03100586,0.03100586 0 0 1 0.03101,0.03101 z"
       id="path919"
       style="fill:#d4d4d4;stroke-width:0.264582" />
  </g>
</svg>
