<?xml version="1.0" encoding="UTF-8"?>
<svg width="332.75mm" height="332.75mm" version="1.1" viewBox="0 0 332.75 332.75" xmlns="http://www.w3.org/2000/svg">
 <g transform="translate(61.16 -18.257)">
  <rect x="-61.16" y="18.257" width="332.75" height="332.75" ry="9.0077" fill="#ff7d01" fill-rule="evenodd"/>
  <g fill="#fafafa">
   <path d="m170.5 335.88h-23.905l-31.295-35.643v-19.263l-47.805-3.0734-1.6755-8.823-1.6754-8.823h20.906v-4.8376l-8.11-20.269-8.11-20.269h-74.531v3.8102l-15.332 36.694 25.223 9.5896-2.9639 7.724-2.964 7.724h-54.38v-13.565l70.584-152.95v-5.8982l16.274-34.295h17.937l47.621 108.4 20.642 53.567 21.047-24.23 30.177-18.569 47.708-0.68452 1.4761-7.5625 1.4761-7.5626-1.8972-16.386-1.8971-16.385h-19.064v-8.8488l6.3021-5.1974 6.3022-5.1974 45.375-3.444-1.8808 93.934-1.8808 93.934 17.924 10.031-3.1415 8.1867-3.1415 8.1867h-40.975l-7.6736-20.744-18.773 20.744zm2.9382-10.083h15.56l19.573-15.681-22.025 10.64h-15.629l-30.499-27.729-3.0932-23.451-3.0932-23.451 16.22-33.765-25.019 30.25-0.0504 7.5625h-13.287l-68.906-161.33h-6.5485l-22.176 45.645 0.20187 3.6464 0.20187 3.6464 15.37-28.353 10.354 3.4513 29.331 68.754v14.127h-74.785l-3.9705-11.911-29.218 68.748-13.747 13.747 33.491-0.79623-12.604-5.0859v-13.449l19.808-46.211h85.862l21.283 41.717-2.2772 11.912-2.2772 11.912h28.934l16.247 40.605 21.207 14.854zm66.473 0h12.75l-12.078-14.553 1.2101-87.255 1.2101-87.255-6.7022-2.5208-32.771 1.0051 25.208 6.9743 3.002 62.604h-25.231l24.75 24.75v45.177l-4.849 12.754-4.8491 12.754 10.577 6.5367-2.4881 9.5144-2.488 9.5144zm-50.804-15.445 5.7436 0.31958 22.973-18.602-0.20493-31.893-0.20494-31.893-18.332-13.404h-31.802l-8.284 9.1538-8.2841 9.1538-6.0577 30.288 15.573 37.272 23.136 9.285 5.7436 0.31959zm-2.7437-25.042-8.0416-0.15328-8.823-5.1389-8.823-5.1389v-29.965l24.565-11.193 15.855 6.0842 5.798 12.725 5.798 12.725-18.288 20.208zm-0.47904-9.9301h3.807l5.5736-6.7158 5.5736-6.7157-14.338-19.339-17.396 17.14 12.973 15.631zm-22.688-65.542h2.5208v-5.0417h-5.0417v5.0417zm25.208-6.0246 15.125 0.18688-12.412-5.0219-17.838 4.6483 15.125 0.18688zm-154.15-14.142h24.831l-26.258-60.855-23.404 57.527v3.3288zm-37.435-5.0417h2.5208v-5.0417h-5.0417v5.0417zm10.083-20.167 7.2052-12.604v-10.083l-14.41 25.208v10.083zm258.08 104.62-2.3057 8.823v-35.292l2.3057 8.8229 2.3057 8.823zm-246.74-200.45-3.7813 0.04745v-13.147l33.251-32.228h27.249v14.921l-52.938 30.359-3.7813 0.04745zm8.2056-10.036h1.9035l13.839-17.646-17.646 13.839v3.807zm20.189-15.125h2.5208l6.2319-10.083h-5.0417l-3.1159 5.0417-3.1159 5.0417z"/>
   <g fill-rule="evenodd">
    <path transform="scale(.26458)" d="m150.31 322.83c-10.12-0.63961-22.794 0.67419-26.136 12.116-27.176 56.494-55.3 112.67-81.887 169.36-1.7225 10.507-0.67031 22.236 3.4791 32.097 6.2522 11.021 23.111 7.2393 26.802-4.0387 16.692-28.882 31.986-58.541 48.451-87.55 7.5378 3.2755 17.075 4.4549 23.281 9.1824 35.568 83.422 71.138 166.84 106.71 250.27v36.802h-259.96c-5.4565-12.308-6.2492-29.392-19.063-36.705-10.409-4.293-19.306 4.705-22.146 14.036-36.302 80.351-69.7 161.98-104.51 242.98-16.4 17.019-34.187 32.847-49.339 50.999-6.5006 10.459 3.7283 23.583 15.371 21.791 38.47 0.079 77.02-0.06 115.4-3.0022 12.742-0.8895 17.459-19.451 6.0212-25.638-11.651-5.9395-24.514-9.8195-36.615-14.992 1.0049-14.067-2.0972-28.975 1.6735-42.476 22.853-53.454 45.704-106.91 68.555-160.36 102.77-0.0163 205.53-0.034 308.3-0.053 24.796 48.648 49.592 97.296 74.389 145.94-5.056 28.974-11.709 57.669-16.091 86.532 1.394 13.736 17.127 15.03 27.905 14.495 28.447 0.3298 56.898 0.131 85.346 0.2037 19.687 48.676 38.505 97.839 58.735 146.21 9.4244 11.65 24.145 17.826 35.706 27.265 17.149 11.43 33.397 24.591 51.127 34.904 14.114 3.5731 29.36 0.5754 43.916 1.5674 26.946-0.4819 54.151 0.9954 80.934-0.723 12.279-4.2693 20.863-15.696 31.653-22.824 12.518-11.26 28.186-19.845 37.87-33.831 6.3319-12.487-9.5813-26.156-21.172-18.424-22.004 9.8023-43.435 21.659-65.558 30.676h-47.653c-36.245-32.835-72.386-65.784-108.54-98.725-7.4056-56.181-14.811-112.36-22.215-168.54 17.458-37.343 36.669-73.954 52.483-112.02 3.6814-13.138-13.535-23.467-23.518-14.414-24.224 25.588-45.284 54.099-68.189 80.889-8.417 11.981-24.006 22.224-20.812 38.824 3.3821 11.507-11.025 4.9586-17.519 6.4405-11.298 3.33-14.346-5.6294-17.373-14.621-83.458-195.51-166.92-391.02-250.37-586.53-4.9598-10.141-16.022-8.6527-25.432-8.111z"/>
    <path transform="scale(.26458)" d="m846.18 495.4c-18.276 2.3624-41.532-2.5438-55.592 11.858-10.383 19.891 16.305 27.164 30.221 30.92 11.644 6.1227 35.717 1.8974 31.831 20.261 3.2941 67.389 6.7116 134.77 9.7724 202.17-27.425 1.7207-56.416-3.5958-82.946 4.3025-16.398 14.283 4.7632 29.894 14.409 40.228 22.237 23.01 45.106 45.397 67.689 68.065-0.69599 55.194 1.3692 110.9-1.0379 165.78-10.954 32.135-26.934 63.288-34.69 96.047 2.3131 17.593 28.636 19.419 36.537 31.893-3.7968 21.931-15.687 43.322-13.744 65.692 12.408 16.133 36.311 7.5014 53.85 10.268 18.918-2.5707 42.469 5.9766 58.162-5.6577 10.553-18.031-15.028-31.431-22.586-45.877-12.339-11.915-20.137-25.389-15.924-43.012 2.974-210.15 6.1-420.3 8.8638-630.46-6.3192-21.308-34.37-20.408-52.902-22.199-10.63-0.47198-21.277-0.49672-31.914-0.27901z"/>
    <path transform="scale(.26458)" d="m717.48 741.53c-15.816 2.6755-41.024 4.6979-43.867 24.386 2.7564 21.779 30.942 15.763 46.278 16.987 14.593-2.0023 38.928 5.0037 44.663-13.044 3.1884-19.964-23.617-22.63-37.414-27.514-3.1746-0.63569-6.4222-0.93756-9.6596-0.81473z"/>
    <path transform="scale(.26458)" d="m601.42 761.87c-9.8551 4.8702-8.0895 16.707-8.0477 25.804-1.6642 9.3188 4.8955 19.678 15.01 19.051 9.6459-0.80834 22.974 3.1524 28.867-6.8592 4.3376-7.9265 1.6786-17.664 2.0856-26.31-0.45349-9.8511-11.082-14.57-19.841-13.014-6.0801 0.1165-12.19-0.59483-18.074 1.3278z"/>
    <path transform="scale(.26458)" d="m672.91 750.96c-4.6736 0.47314-9.1351 2.1445-13.69 3.2292-4.3589 1.1094-9.032 2.4678-11.864 6.2375-4.374 5.3533-3.9273 13.879 1.0645 18.688 3.3525 3.6886 8.5438 4.7098 13.332 4.5062 5.0139-0.0758 10.087 0.32879 15.059-0.40238 6.7225-1.1552 11.817-7.7791 11.311-14.562-0.345-2.3435-0.47937-4.7149-0.96225-7.0301-1.4585-6.3955-7.7384-10.966-14.25-10.667zm14.418 17.101c-0.0978 0.49584 0.043-0.25907 0 0z"/>
    <path transform="scale(.26458)" d="m695.55 909.09c-21.949 22.194-46.595 42.108-66.256 66.378-5.5438 16.19 12.784 26.629 20.061 38.801 12.047 12.874 20.669 29.597 35.541 39.328 16.457-0.1321 38.653 5.9148 48.048-12.159 12.208-16.942 30.851-31.087 36.674-51.706-2.845-16.446-17.596-28.05-25.9-42.068-11.6-13.654-19.517-31.034-34.039-41.743-5.2806-0.45268-9.9382-0.61021-14.13 3.1686z"/>
    <path transform="scale(.26458)" d="m-26.535 666.84c-9.8551 4.8702-8.0895 16.707-8.0477 25.804-1.6642 9.3188 4.8955 19.678 15.01 19.051 9.576-0.60917 23.235 2.9653 28.317-7.7585 3.6133-7.785 1.2875-17.072 1.6256-25.41-0.45349-9.8511-11.082-14.57-19.841-13.014-5.7536 0.0686-11.502-0.52011-17.064 1.3278z"/>
    <path transform="scale(.26458)" d="m50.1 528.49c-11.566 1.8509-14.917 14.558-20.89 22.839-14.287 24.319-28.444 48.791-42.043 73.459-3.214 10.39-0.9435 21.634-1.4194 32.397-0.81331 8.9732 4.2732 19.966 14.52 19.741 11.676 0.57651 15.584-12.227 20.953-20.129 15.037-25.756 30.049-51.605 44.441-77.685 3.1967-10.085 0.69303-21.015 0.90709-31.462 0.42534-8.9183-4.6735-18.805-14.582-19.221l-1.0096 0.0327z"/>
    <path transform="scale(.26458)" d="m148.56 148.55c-11.939 5.1504-21.102 15.123-31.679 22.519-11.565 9.7366-24.666 17.907-35.198 28.699-4.4102 6.8169-2.8881 16.007-2.1439 23.711 1.4532 9.5812 12.479 12.275 20.763 10.991 8.3512 1.0495 17.127-1.6801 21.366-9.4071 14.244-18.662 29.403-36.711 42.952-55.858 6.0603-10.526-4.2473-23.911-16.06-20.655z"/>
    <path transform="scale(.26458)" d="m201.05 112.74c-8.9156-0.23746-20.076 4e-3 -24.186 9.5611-7.1272 12.174-15.478 23.731-21.539 36.48-3.3145 9.9954 5.9789 19.6 15.904 18.978 9.5469 0.31478 22.142 2.1131 27.215-8.1765 7.3427-12.879 16.567-24.873 22.655-38.362 3.4419-9.8614-6.3924-19.477-16.207-18.436-1.28-0.0448-2.5607-0.0549-3.8413-0.0434z"/>
   </g>
  </g>
  <path transform="scale(.26458)" d="m992.73 910.44c-7.505 0.62714-13.327 7.5838-13.088 15.032-0.68886 32.848-0.29633 65.714-0.30185 98.569 0.35065 7.8238-0.56248 15.822 1.1191 23.517 2.378 7.7231 11.95 12.144 19.211 8.3824 7.0703-2.7925 8.4167-10.93 10.266-17.392 4.7314-17.419 9.4259-34.877 13.698-52.399 0.937-6.9447-2.5803-13.518-3.8263-20.249-4.2651-15.618-7.8176-31.467-12.932-46.833-2.3299-5.5013-8.214-9.0173-14.146-8.6267z" fill="#ff7d01" fill-rule="evenodd"/>
 </g>
</svg>
