<?xml version="1.0" encoding="UTF-8" standalone="no"?>
<svg
   xmlns:dc="http://purl.org/dc/elements/1.1/"
   xmlns:cc="http://creativecommons.org/ns#"
   xmlns:rdf="http://www.w3.org/1999/02/22-rdf-syntax-ns#"
   xmlns:svg="http://www.w3.org/2000/svg"
   xmlns="http://www.w3.org/2000/svg"
   xmlns:sodipodi="http://sodipodi.sourceforge.net/DTD/sodipodi-0.dtd"
   xmlns:inkscape="http://www.inkscape.org/namespaces/inkscape"
   width="72.760414mm"
   height="72.760414mm"
   version="1.1"
   viewBox="0 0 72.760416 72.760412"
   id="svg6"
   sodipodi:docname="SASCO.svg"
   inkscape:version="1.0.1 (1.0.1+r73)">
  <metadata
     id="metadata12">
    <rdf:RDF>
      <cc:Work
         rdf:about="">
        <dc:format>image/svg+xml</dc:format>
        <dc:type
           rdf:resource="http://purl.org/dc/dcmitype/StillImage" />
      </cc:Work>
    </rdf:RDF>
  </metadata>
  <defs
     id="defs10" />
  <sodipodi:namedview
     pagecolor="#ffffff"
     bordercolor="#666666"
     borderopacity="1"
     objecttolerance="10"
     gridtolerance="10"
     guidetolerance="10"
     inkscape:pageopacity="0"
     inkscape:pageshadow="2"
     inkscape:window-width="1920"
     inkscape:window-height="1020"
     id="namedview8"
     showgrid="false"
     inkscape:zoom="1.8968862"
     inkscape:cx="137.72409"
     inkscape:cy="114.13296"
     inkscape:window-x="0"
     inkscape:window-y="30"
     inkscape:window-maximized="1"
     inkscape:current-layer="svg6" />
  <g
     transform="matrix(0.99837285,0,0,0.807498,-51.978286,-107.26561)"
     id="g4"
     style="stroke-width:1.11374">
    <path
       d="m 52.063,177.89 v -45.053 h 72.879 v 90.106 H 52.063 Z m 47.773,27.791 c 16.732,-8.536 20.659,-36.901 6.8395,-49.399 -2.5841,-2.3369 -2.786,-2.2469 -8.4228,3.7575 -8.6138,9.1755 -8.606,9.1241 -2.5477,16.733 2.962,3.7201 5.3855,8.1246 5.3855,9.7876 0,1.6879 -2.927,6.5267 -6.6254,10.953 -3.644,4.361 -6.6254,8.5872 -6.6254,9.3914 0,2.3353 6.2746,1.6952 11.996,-1.2238 z M 80.468,194.346 c 6.2829,-7.713 6.4735,-9.6023 1.3939,-13.818 -3.5145,-2.9168 -6.2222,-9.3146 -5.3734,-12.696 0.43471,-1.7314 3.4958,-6.1945 6.8028,-9.918 6.6438,-7.4806 6.9543,-10.078 1.1202,-9.3685 -9.4284,1.1459 -17.871,9.4777 -21.197,20.919 -1.7944,6.1726 -1.9128,8.7411 -0.68482,14.856 1.6185,8.059 7.0022,17.422 10.018,17.422 1.0428,0 4.6071,-3.3281 7.9206,-7.3958 z"
       fill="#a63c3c"
       id="path2"
       style="stroke-width:1.21875" />
  </g>
</svg>
